<?xml version="1.0" encoding="utf-8" ?><svg xmlns="http://www.w3.org/2000/svg" xmlns:xlink="http://www.w3.org/1999/xlink" width="512" height="512" viewBox="0 0 512 512"><path fill="#27AFE2" transform="matrix(1.024 0 0 1.024 0 6.10352e-05)" d="M227.096 262.14C227.061 259.893 226.471 257.72 226.473 255.487C226.495 230.271 226.438 205.056 226.505 179.84C226.515 176.131 227.459 174.524 231.45 174.341C237.204 174.076 243.03 174.403 248.796 174.328C255.204 174.353 261.511 174.273 267.904 174.298C269.466 174.305 271.762 174.661 272.872 175.853C274.204 179.7 273.707 189.464 273.702 193.839L273.694 220.617C273.75 230.218 273.73 239.818 273.636 249.418C273.61 254.835 273.749 261.811 273.287 267.095C274.693 263.438 275.662 258.363 276.81 254.537C280.014 243.851 284.376 249.686 288.573 254.963C290.331 257.801 294.452 262.721 296.95 265.104C300.649 265.391 305.354 265.254 309.153 265.251L327.927 265.204C330.13 265.181 333.125 264.981 335.187 265.062C339.535 265.252 345.177 265.051 349.618 265.043L377.588 265.045C382.178 265.05 386.954 264.908 391.518 265.078C394.381 265.185 395.823 267.097 395.604 269.823C395.477 271.474 394.293 272.799 392.599 272.901C387.721 273.194 382.758 273.063 377.864 273.059L347.189 273.029C344.61 273.029 337.064 272.863 334.956 273.149C335.088 279.496 336.007 312.781 334.48 316.544C334.211 317.207 333.968 317.44 333.293 317.699C332.176 318.127 330.87 318.206 329.681 318.251C323.517 318.487 317.274 318.171 311.096 318.21C305.119 318.247 298.814 318.724 292.872 318.239C291.311 318.111 290.127 317.73 288.709 317.117C287.89 312.687 288.305 305.499 288.241 300.817C288.093 290.037 288.547 278.848 288.247 268.085C286.836 265.31 284.844 264.018 283.163 260.774C282.858 264.288 281.53 268.359 280.557 271.798C278.938 277.441 277.364 283.097 275.834 288.766C275.079 291.475 273.666 296.04 273.201 298.659C273.908 301.918 274.182 313.566 272.877 316.889C272.369 318.185 268.553 318.505 267.091 318.247C265.618 318.153 263.639 318.226 262.123 318.24C257.464 318.252 231.413 318.926 228.301 317.834C227.536 317.565 227.194 317.229 226.906 316.47C226.575 315.595 226.5 314.58 226.457 313.65C226.187 307.77 226.507 301.761 226.487 295.867C226.469 290.727 226.032 285.166 226.547 280.057C226.609 279.445 226.81 278.899 227.073 278.348C226.152 275.82 223.675 272.305 222.152 269.914C220.078 266.67 218.042 263.402 216.043 260.111C214.934 262.464 212.663 264.17 211.044 267.522C210.549 278.124 211.226 289.903 210.976 300.591C210.891 304.2 211.367 314.049 210.42 316.895C209.578 317.572 207.638 318.075 206.615 318.08C200.585 318.11 193.381 318.482 187.449 318.21C182.684 317.992 168.913 318.977 165.166 317.385C162.918 310.962 165.492 292.528 164.603 285.007C164.501 284.139 164.264 273.9 164.359 273.505C161.5 273.407 158.544 273.099 155.716 273.069C140.168 272.902 124.604 273.185 109.06 272.966C103.751 272.891 103.044 268.739 106.569 265.446C110.359 264.736 121.671 265.033 126.065 265.034L164.555 265.008C164.525 260.156 164.187 225.365 165.266 223.471C165.668 222.764 166.354 222.307 167.129 222.106C169.588 221.47 202.013 221.565 205.903 221.899C207.375 222.025 208.84 222.311 210.103 223.103C210.621 224.034 210.846 225.249 210.883 226.317C211.118 233.194 210.945 240.103 210.98 246.987C210.991 249.129 211.035 251.624 210.772 253.724C213.146 250.879 215.362 246.217 219.365 250.246C222.491 253.394 224.362 258.892 227.096 262.14Z"/><path fill="#E59022" transform="matrix(1.024 0 0 1.024 0 6.10352e-05)" d="M227.096 262.14C227.061 259.893 226.471 257.72 226.473 255.487C226.495 230.271 226.438 205.056 226.505 179.84C226.515 176.131 227.459 174.524 231.45 174.341C237.204 174.076 243.03 174.403 248.796 174.328C255.204 174.353 261.511 174.273 267.904 174.298C269.466 174.305 271.762 174.661 272.872 175.853C274.204 179.7 273.707 189.464 273.702 193.839L273.694 220.617C273.75 230.218 273.73 239.818 273.636 249.418C273.61 254.835 273.749 261.811 273.287 267.095C272.945 269.583 271.609 274.092 270.918 276.617L267.355 289.829C267.061 290.9 266.823 292.229 265.884 292.765C264.84 291.98 264.261 284.611 264.047 282.961C263.46 278.593 262.846 274.23 262.205 269.87L254.366 214.268C253.537 208.72 253.125 201.829 251.131 196.652C250.305 195.215 246.139 195.741 245.723 197.039C244.1 202.106 243.367 207.936 242.42 213.162L235.741 249.214C234.615 255.32 233.626 261.563 232.322 267.625C232.107 268.627 232.103 268.801 231.463 269.354C230.448 268.575 227.872 263.562 227.096 262.14Z"/><path fill="#D12A2D" transform="matrix(1.024 0 0 1.024 0 6.10352e-05)" d="M288.247 268.085C288.307 268.123 288.368 268.16 288.427 268.199C290.277 269.43 291.409 271.749 293.508 272.578C296.493 273.758 328.472 272.826 334.956 273.149C335.088 279.496 336.007 312.781 334.48 316.544C334.211 317.207 333.968 317.44 333.293 317.699C332.176 318.127 330.87 318.206 329.681 318.251C323.517 318.487 317.274 318.171 311.096 318.21C305.119 318.247 298.814 318.724 292.872 318.239C291.311 318.111 290.127 317.73 288.709 317.117C287.89 312.687 288.305 305.499 288.241 300.817C288.093 290.037 288.547 278.848 288.247 268.085Z"/><path fill="#36A66D" transform="matrix(1.024 0 0 1.024 0 6.10352e-05)" d="M164.359 273.505C166.768 273.016 172.14 272.977 174.708 272.943C181.185 272.886 187.663 272.895 194.14 272.969C197.261 272.982 201.734 273.171 204.7 272.302C207.023 271.621 208.789 268.777 211.044 267.522C210.549 278.124 211.226 289.903 210.976 300.591C210.891 304.2 211.367 314.049 210.42 316.895C209.578 317.572 207.638 318.075 206.615 318.08C200.585 318.11 193.381 318.482 187.449 318.21C182.684 317.992 168.913 318.977 165.166 317.385C162.918 310.962 165.492 292.528 164.603 285.007C164.501 284.139 164.264 273.9 164.359 273.505Z"/><path fill="#36A66D" transform="matrix(1.024 0 0 1.024 0 6.10352e-05)" d="M164.555 265.008C164.525 260.156 164.187 225.365 165.266 223.471C165.668 222.764 166.354 222.307 167.129 222.106C169.588 221.47 202.013 221.565 205.903 221.899C207.375 222.025 208.84 222.311 210.103 223.103C210.621 224.034 210.846 225.249 210.883 226.317C211.118 233.194 210.945 240.103 210.98 246.987C210.991 249.129 211.035 251.624 210.772 253.724C209.576 254.208 204.538 262.842 202.031 264.233C198.125 266.4 193.074 264.927 188.704 265.355C180.646 265.549 172.59 265.256 164.555 265.008Z"/><path fill="#E59022" transform="matrix(1.024 0 0 1.024 0 6.10352e-05)" d="M227.073 278.348L227.251 278.552C230.271 282.052 235.276 290.811 237.96 280.506C239.132 276.006 239.728 270.988 240.593 266.368C242.821 254.429 244.937 242.469 246.943 230.49C247.153 229.296 247.322 227.306 248.534 227.21C249.149 228.694 250.443 241.044 250.799 243.71C252.774 258.391 254.847 273.058 257.019 287.71C257.664 292.359 260.193 315.172 262.123 318.24C257.464 318.252 231.413 318.926 228.301 317.834C227.536 317.565 227.194 317.229 226.906 316.47C226.575 315.595 226.5 314.58 226.457 313.65C226.187 307.77 226.507 301.761 226.487 295.867C226.469 290.727 226.032 285.166 226.547 280.057C226.609 279.445 226.81 278.899 227.073 278.348Z"/><path fill="#E59022" transform="matrix(1.024 0 0 1.024 0 6.10352e-05)" d="M273.201 298.659C273.908 301.918 274.182 313.566 272.877 316.889C272.369 318.185 268.553 318.505 267.091 318.247C269.221 313.439 271.041 302.038 273.201 298.659Z"/><path fill="#D12A2D" transform="matrix(1.024 0 0 1.024 0 6.10352e-05)" d="M288.573 254.963C287.935 248.483 288.244 238.673 288.245 231.831L288.248 191.64L288.234 152.197C288.232 147.889 287.912 134.466 288.783 131.205C290.037 129.833 292.146 129.338 293.954 129.359C306.053 129.504 318.156 129.39 330.253 129.443C331.07 129.447 333.308 129.853 333.876 130.394C335.521 131.962 335.155 136.988 335.17 139.053L335.028 228.208L335.203 254.527C335.206 256.836 335.388 263.094 335.187 265.062C333.125 264.981 330.13 265.181 327.927 265.204L309.153 265.251C305.354 265.254 300.649 265.391 296.95 265.104C294.452 262.721 290.331 257.801 288.573 254.963Z"/><path fill="#27AFE2" transform="matrix(1.024 0 0 1.024 0 6.10352e-05)" d="M169.053 339.832C174.029 339.26 179.002 340.718 180.502 345.854C180.628 346.286 180.463 347.163 180.118 347.354C177.232 348.944 174.406 342.915 171.033 343.304C170.036 343.165 167.169 343.668 166.558 344.484C163.298 348.889 167.729 350.249 171.233 351.212C174.713 352.169 181.074 353.948 181.326 358.375C181.737 365.596 177.283 366.8 171.303 367.375C167.394 367.294 160.409 366.236 160.704 360.595C160.763 359.467 162.201 358.787 163.301 359.179C164.842 359.729 165.193 360.762 165.879 362.13C167.151 362.903 169.494 364.009 170.966 363.902C172.142 363.757 175.543 362.768 176.155 361.799C179.241 356.907 172.054 355.864 168.932 354.926C165.853 354.048 161.737 352.599 161.314 348.858C160.617 342.687 163.581 340.564 169.053 339.832Z"/><path transform="matrix(1.024 0 0 1.024 0 6.10352e-05)" d="M277.484 346.826C281.163 346.566 287.478 346.53 287.93 351.806C288.344 356.626 288.078 362.249 287.93 367.136C287.114 367.001 285.49 366.764 284.586 366.683C284.402 366.454 284.219 366.226 284.035 365.998C278.867 367.119 275.007 369.371 271.365 363.634L270.729 360.921C271.505 359.328 271.867 358.763 272.893 357.309C276.52 355.362 280.313 354.907 284.301 354.409C284.276 353.151 284.098 352.25 283.897 351.018C283.465 350.719 283.023 350.433 282.573 350.162C276.676 346.687 276.622 354.638 272.512 352.085C271.587 349.632 275.608 347.512 277.484 346.826ZM276.581 363.987C280.297 364.801 281.242 363.98 283.936 361.629C284.12 360.292 284.437 358.828 284.197 357.534L283.873 357.246L283.097 357.31C280.523 357.714 276.924 358 275.113 360.069C273.944 361.404 275.38 363.23 276.581 363.987Z"/><path transform="matrix(1.024 0 0 1.024 0 6.10352e-05)" d="M325.928 346.79C330.25 346.547 333.524 346.909 335.65 351.373C336.489 353.133 337.217 355.728 336.521 357.622C335.323 358.666 325.06 358.16 322.782 358.127L322.822 358.395L322.892 358.841C323.697 364.217 327.718 366.314 331.945 362.421C333.213 361.906 335.046 361.02 335.865 362.474C335.724 364.718 332.97 366.307 330.956 366.863C320.206 369.833 316.617 358.72 320.322 350.744C321.287 348.668 323.72 347.342 325.928 346.79ZM329.062 355.267C330.259 355.298 331.288 355.477 332.299 354.927C334.273 352.478 329.915 349.567 327.664 349.249C324.356 350.307 322.883 351.229 323.05 354.974C323.933 355.543 327.727 355.246 329.062 355.267Z"/><path fill="#27AFE2" transform="matrix(1.024 0 0 1.024 0 6.10352e-05)" d="M231.336 339.992C237.463 340.086 243.966 339.809 250.1 340.11C251.2 340.164 251.103 342.491 250.786 343.286C249.184 344.061 244.956 343.747 243.007 343.697L243.004 360.813C242.942 365.525 244.495 368.051 238.561 367.029C238.342 363.921 238.472 359.264 238.479 356.044C238.486 352.279 238.354 347.411 238.592 343.764C236.489 343.8 227.017 344.628 231.336 339.992Z"/><path transform="matrix(1.024 0 0 1.024 0 6.10352e-05)" d="M195.51 361.03C195.789 360.229 196.522 358.253 196.922 357.545C198.508 354.736 200.004 347.275 203.344 346.682C204.333 347.017 203.939 346.743 204.606 347.481C204.623 349.65 201.131 357.176 200.115 359.563C198.9 361.993 197.959 364.557 196.931 367.071C196.177 368.917 193.692 376.398 190.734 373.372C190.431 371.91 192.728 367.375 193.43 365.18C192.347 363.004 186.515 349.274 186.29 347.648C186.59 346.987 186.667 347.137 187.51 346.728C188.977 346.793 189.591 347.125 190.232 348.431C192.214 352.472 193.892 356.832 195.51 361.03Z"/><path transform="matrix(1.024 0 0 1.024 0 6.10352e-05)" d="M215.484 346.782C219.533 346.612 222.84 346.381 225.127 350.422C225.538 351.147 225.486 350.845 225.28 351.6C223.058 353.717 218.728 348.198 216.619 349.448C206.631 355.369 224.71 354.236 225.625 359.613C226.547 365.032 224.147 365.997 219.966 367.177C216.9 367.509 215.4 367.125 212.434 366.425C211.058 365.302 209.346 364.012 210.303 362.097C211.919 361.407 214.43 363.286 215.928 363.828C218.921 364.91 222.588 364.863 221.81 360.725C221.68 360.033 220.057 358.938 219.553 358.562C217.443 358.408 215.488 358.272 213.6 357.231C207.447 353.842 209.609 348.397 215.484 346.782Z"/><path transform="matrix(1.024 0 0 1.024 0 6.10352e-05)" d="M302.503 346.824C303.086 346.799 303.669 346.788 304.251 346.791C308.642 346.837 312.954 348.781 312.803 353.852L312.161 354.351C309.889 354.069 307.496 351.5 305.78 349.934C299.302 347.905 297.883 356.895 299.825 361.079C300.93 363.458 301.589 363.589 303.843 364.44C305.003 364.273 306.479 364.129 307.354 363.398C307.906 362.42 308.623 361.315 309.218 360.342C310.939 360.193 311.969 359.724 312.803 361.389C312.798 363.891 309.57 366.376 307.356 366.945C301.931 368.34 296.24 366.297 295.381 360.156C294.56 354.296 295.524 347.861 302.503 346.824Z"/><path transform="matrix(1.024 0 0 1.024 0 6.10352e-05)" d="M256.065 346.734L256.475 346.735C257.996 346.751 258.301 347.086 259.319 348.163L259.646 348.512C263.023 347.004 263.403 346.724 266.918 346.98C266.873 348.419 267.065 349.102 266.28 350.141C265.384 350.573 262.899 350.464 261.492 350.583C259.058 353.094 259.205 353.975 259.11 357.438C259.011 360.206 259.627 363.323 258.82 365.893C258.368 367.332 255.233 367.321 255.349 365.714C255.589 362.415 254.522 348.841 256.065 346.734Z"/></svg>